<?xml version="1.0" standalone="no"?>
<!DOCTYPE svg PUBLIC "-//W3C//DTD SVG 20010904//EN"
 "http://www.w3.org/TR/2001/REC-SVG-20010904/DTD/svg10.dtd">
<svg version="1.0" xmlns="http://www.w3.org/2000/svg"
 width="478.000000pt" height="312.000000pt" viewBox="0 0 478.000000 312.000000"
 preserveAspectRatio="xMidYMid meet">

<g transform="translate(0.000000,312.000000) scale(0.100000,-0.100000)"
fill="#ff1801" stroke="none">
<path d="M1135 2476 c-22 -8 -84 -38 -137 -68 -78 -44 -110 -56 -159 -62 -78
-8 -153 -48 -195 -103 -41 -54 -68 -137 -150 -463 -55 -222 -65 -273 -60 -317
12 -105 58 -171 184 -266 138 -105 135 -98 96 -197 -20 -53 -14 -102 19 -150
36 -54 68 -71 193 -101 233 -58 333 -71 579 -76 273 -5 290 -9 383 -95 35 -33
89 -72 120 -86 l57 -27 323 -3 322 -3 0 -70 0 -69 60 0 60 0 0 70 0 70 446 0
c481 0 497 2 522 53 21 45 21 59 -3 166 -14 61 -25 114 -25 120 0 5 100 -24
222 -65 122 -41 232 -74 244 -74 33 0 69 43 122 148 91 179 152 334 152 386 0
56 -20 102 -59 140 -33 32 -594 289 -668 306 -71 16 -175 15 -388 -5 -236 -21
-253 -27 -353 -118 -55 -49 -149 -93 -243 -113 -96 -21 -272 -13 -383 16 -213
57 -392 202 -497 406 -43 82 -46 101 -25 142 37 72 28 156 -24 208 -16 18
-146 91 -296 169 -252 131 -269 138 -332 141 -40 2 -83 -2 -107 -10z m390
-242 c136 -71 254 -139 262 -151 13 -19 12 -26 -6 -67 -32 -68 -28 -128 14
-215 129 -269 348 -445 633 -509 108 -24 352 -23 442 2 93 26 178 69 246 126
32 27 70 56 84 64 27 15 337 48 452 47 37 0 87 -5 110 -11 70 -19 591 -259
611 -282 9 -11 17 -31 17 -44 0 -23 -133 -332 -163 -378 l-17 -25 -207 70
c-230 77 -269 84 -310 53 -54 -40 -58 -65 -33 -183 12 -58 25 -116 28 -129 l4
-22 -428 2 -429 3 -3 68 -3 67 -59 0 -60 0 0 -70 0 -70 -293 0 c-347 0 -356 2
-451 91 -35 32 -87 71 -117 86 -53 27 -57 28 -304 34 -276 8 -331 14 -548 66
-125 30 -150 39 -164 59 -15 23 -15 28 5 68 29 58 29 129 -1 178 -12 20 -69
73 -127 118 -107 82 -143 126 -154 185 -10 53 143 650 179 703 24 33 70 53
142 62 35 5 80 17 101 27 20 11 77 41 127 67 76 41 96 47 131 43 27 -3 126
-48 289 -133z"/>
</g>
</svg>
