<?xml version="1.0" standalone="no"?>
<!DOCTYPE svg PUBLIC "-//W3C//DTD SVG 20010904//EN"
 "http://www.w3.org/TR/2001/REC-SVG-20010904/DTD/svg10.dtd">
<svg version="1.0" xmlns="http://www.w3.org/2000/svg"
 width="428.000000pt" height="327.000000pt" viewBox="0 0 428.000000 327.000000"
 preserveAspectRatio="xMidYMid meet">

<g transform="translate(0.000000,327.000000) scale(0.100000,-0.100000)"
fill="#ff1801" stroke="none">
<path d="M3755 3202 c-77 -38 -210 -109 -295 -156 -85 -48 -234 -127 -331
-176 l-175 -89 -27 55 -27 54 -50 -25 c-27 -14 -50 -30 -50 -35 0 -5 10 -30
22 -55 12 -24 19 -47 16 -50 -2 -3 -126 -62 -274 -131 -173 -81 -433 -190
-728 -304 -352 -137 -466 -185 -488 -208 -32 -31 -46 -90 -33 -139 4 -17 64
-85 158 -180 83 -84 149 -155 146 -157 -2 -2 -25 -7 -51 -11 -36 -6 -49 -4
-52 6 -49 168 -106 219 -244 219 -87 0 -124 -20 -142 -75 -15 -47 -9 -63 72
-183 75 -111 159 -279 177 -354 22 -94 6 -184 -37 -207 -12 -6 -46 -11 -76
-11 -107 0 -286 82 -509 234 -180 123 -186 126 -243 126 -63 0 -75 -8 -288
-187 -224 -189 -226 -191 -226 -272 0 -82 21 -120 81 -148 24 -11 387 -165
806 -342 547 -230 773 -321 800 -321 73 0 133 62 133 136 0 14 -40 105 -90
201 -49 96 -90 187 -90 203 0 34 33 83 125 185 87 97 206 241 259 314 31 41
42 67 48 113 10 74 30 109 84 148 55 39 81 95 105 225 10 59 23 123 29 143 34
126 115 157 293 111 160 -41 226 -14 352 145 51 64 82 76 203 76 142 0 197 18
322 102 170 115 209 146 245 196 19 26 104 200 190 388 175 386 179 398 122
460 -26 28 -42 37 -77 41 -40 4 -61 -4 -185 -65z m26 -394 c-147 -323 -153
-335 -210 -388 -68 -65 -244 -186 -298 -206 -22 -8 -81 -13 -143 -14 -58 0
-121 -5 -141 -10 -58 -16 -114 -60 -169 -133 -35 -46 -64 -74 -89 -84 -33 -14
-43 -14 -128 7 -70 17 -111 21 -170 18 -170 -10 -245 -98 -284 -331 -24 -141
-30 -156 -88 -205 -57 -48 -97 -119 -106 -190 -8 -61 -56 -127 -274 -377 -201
-230 -204 -256 -67 -519 47 -90 86 -167 86 -170 0 -3 -5 -6 -11 -6 -5 0 -268
109 -582 241 -315 133 -662 279 -772 325 -110 47 -207 91 -215 99 -11 12 -12
20 -4 33 18 30 378 332 396 332 9 0 87 -48 174 -106 173 -116 363 -214 464
-239 92 -24 187 -22 238 4 180 92 158 371 -55 696 -33 50 -62 96 -67 103 -13
21 61 15 83 -7 11 -11 29 -50 41 -87 23 -77 41 -101 89 -121 29 -13 43 -12
115 3 44 10 91 24 104 32 49 32 67 114 36 162 -9 14 -82 91 -163 172 -91 93
-142 151 -136 157 6 5 208 85 450 179 384 148 711 289 944 406 l68 35 21 -45
22 -44 52 26 c29 15 55 28 57 30 2 2 -6 20 -18 40 -12 20 -18 40 -14 44 4 5
85 47 178 96 94 48 226 119 295 157 170 96 432 229 437 223 3 -2 -63 -155
-146 -338z"/>
</g>
</svg>
