<?xml version="1.0" standalone="no"?>
<!DOCTYPE svg PUBLIC "-//W3C//DTD SVG 20010904//EN"
 "http://www.w3.org/TR/2001/REC-SVG-20010904/DTD/svg10.dtd">
<svg version="1.0" xmlns="http://www.w3.org/2000/svg"
 width="418.000000pt" height="337.000000pt" viewBox="0 0 418.000000 337.000000"
 preserveAspectRatio="xMidYMid meet">

<g transform="translate(0.000000,337.000000) scale(0.100000,-0.100000)"
fill="#ff1801" stroke="none">
<path d="M1062 3001 c-41 -11 -101 -58 -124 -97 -10 -17 -66 -291 -140 -679
l-123 -650 0 -165 c0 -147 3 -174 25 -250 33 -113 34 -226 2 -287 -33 -63 -30
-124 9 -162 l30 -31 787 -2 787 -3 3 -37 3 -38 60 0 59 0 0 40 0 40 653 0
c612 0 655 2 693 19 93 43 150 158 125 257 -10 41 -297 513 -973 1606 -78 126
-94 140 -160 145 -60 5 -104 -16 -125 -58 -7 -13 -53 -138 -103 -278 -76 -215
-90 -264 -90 -316 0 -123 46 -199 163 -266 99 -58 186 -129 245 -202 88 -110
153 -246 131 -273 -10 -12 -165 -14 -908 -14 l-896 0 45 30 c67 45 187 80 273
80 40 0 211 -11 382 -24 170 -13 318 -20 330 -16 48 19 73 76 52 122 -6 15
-82 88 -168 162 -86 74 -173 154 -193 178 -49 57 -92 148 -106 228 -42 224
-106 328 -267 434 -122 80 -168 145 -217 307 -42 137 -93 191 -192 203 -21 3
-54 1 -72 -3z m104 -145 c12 -11 34 -59 49 -106 57 -175 124 -268 255 -354 84
-56 151 -130 178 -198 12 -29 30 -97 41 -151 37 -184 99 -280 287 -442 69 -59
123 -109 122 -111 -2 -1 -120 6 -263 17 -295 23 -420 21 -515 -10 -135 -43
-286 -156 -296 -222 -5 -28 -1 -41 21 -67 l27 -32 972 0 973 0 33 22 c88 60
98 134 38 260 -93 194 -207 316 -403 431 -72 42 -105 92 -105 158 1 54 169
534 188 534 10 0 837 -1326 990 -1588 43 -74 45 -79 33 -117 -6 -21 -23 -48
-38 -59 -25 -21 -35 -21 -669 -21 l-644 0 0 35 0 35 -60 0 -60 0 0 -35 0 -35
-755 0 c-415 0 -755 1 -755 3 0 1 9 31 20 65 28 91 26 188 -6 293 -21 67 -27
111 -31 219 l-4 135 115 615 c64 338 121 639 127 668 9 43 17 57 42 73 36 21
62 17 93 -15z"/>
</g>
</svg>
