<?xml version="1.0" standalone="no"?>
<!DOCTYPE svg PUBLIC "-//W3C//DTD SVG 20010904//EN"
 "http://www.w3.org/TR/2001/REC-SVG-20010904/DTD/svg10.dtd">
<svg version="1.0" xmlns="http://www.w3.org/2000/svg"
 width="473.000000pt" height="270.000000pt" viewBox="0 0 473.000000 270.000000"
 preserveAspectRatio="xMidYMid meet">

<g transform="translate(0.000000,270.000000) scale(0.100000,-0.100000)"
fill="#ff1801" stroke="none">
<path d="M3317 2101 c-387 -62 -394 -64 -432 -133 -19 -36 -19 -38 -1 -147 11
-61 16 -114 12 -118 -3 -4 -149 -32 -323 -64 -174 -32 -329 -63 -345 -70 -39
-16 -68 -60 -68 -102 0 -19 -6 -39 -12 -44 -21 -15 -345 -96 -357 -88 -6 3
-11 16 -11 28 0 30 -34 83 -62 98 -13 7 -43 16 -67 19 -44 5 -45 5 -56 58 -7
29 -23 64 -36 78 -42 44 -73 47 -331 26 -221 -18 -240 -21 -283 -46 -25 -15
-57 -44 -71 -65 -14 -22 -59 -144 -100 -272 -71 -223 -75 -238 -72 -314 2 -58
9 -93 25 -125 26 -52 365 -426 411 -453 43 -24 112 -32 158 -17 57 19 92 47
124 99 28 45 31 47 147 85 197 64 230 92 279 240 17 49 38 92 58 112 48 51
416 217 617 278 153 47 892 207 900 195 3 -6 12 -35 18 -65 7 -30 17 -54 23
-54 16 0 92 22 100 29 4 4 0 33 -8 65 -8 32 -14 59 -12 61 2 2 74 19 161 39
167 38 199 52 223 97 20 41 18 89 -20 330 -35 227 -45 258 -97 285 -43 22
-106 16 -492 -45z m437 -70 c14 -21 69 -432 60 -441 -10 -10 -263 -70 -295
-70 -11 0 -21 19 -33 64 l-18 63 -59 -15 c-46 -13 -58 -20 -54 -32 11 -27 28
-110 24 -113 -2 -2 -175 -40 -384 -86 -530 -116 -656 -157 -987 -314 -199 -96
-223 -119 -278 -279 -13 -38 -34 -78 -48 -90 -13 -13 -89 -46 -169 -74 l-146
-51 -36 -54 c-20 -29 -48 -60 -63 -68 -23 -14 -30 -14 -56 -1 -34 17 -348 356
-374 403 -31 58 -23 114 53 351 75 236 94 271 153 281 17 3 119 12 225 20 213
16 211 17 211 -40 0 -67 67 -125 144 -125 30 0 36 -4 36 -20 0 -68 63 -130
133 -130 43 0 378 85 419 106 36 19 55 49 64 101 4 26 13 44 23 47 9 3 155 31
325 61 171 31 318 60 327 65 9 5 29 23 43 41 31 37 34 88 10 204 -9 42 -12 81
-7 85 8 8 671 117 725 119 15 1 29 -3 32 -8z"/>
</g>
</svg>
