<?xml version="1.0" standalone="no"?>
<!DOCTYPE svg PUBLIC "-//W3C//DTD SVG 20010904//EN"
 "http://www.w3.org/TR/2001/REC-SVG-20010904/DTD/svg10.dtd">
<svg version="1.0" xmlns="http://www.w3.org/2000/svg"
 width="514.000000pt" height="270.000000pt" viewBox="0 0 514.000000 270.000000"
 preserveAspectRatio="xMidYMid meet">

<g transform="translate(0.000000,270.000000) scale(0.100000,-0.100000)"
fill="#ff1801" stroke="none">
<path d="M924 1895 c-224 -49 -384 -247 -386 -476 0 -124 40 -225 121 -307 18
-17 91 -67 163 -110 135 -80 170 -114 197 -192 17 -53 77 -135 119 -164 20
-14 60 -35 87 -48 l50 -23 1063 -3 1062 -2 0 -50 0 -50 60 0 60 0 0 50 0 49
503 3 502 3 57 28 c69 34 121 91 148 164 16 44 20 78 20 184 0 138 -8 174 -54
234 -22 28 -24 42 -28 190 -5 176 -12 205 -68 269 -43 48 -57 55 -289 138
-164 59 -207 70 -261 71 -77 1 -130 -22 -180 -79 -44 -51 -60 -93 -60 -161 1
-100 52 -178 145 -222 62 -29 132 -95 160 -151 22 -43 59 -200 50 -209 -5 -4
-2 -6 -754 428 -327 189 -610 350 -630 358 -52 22 -139 13 -188 -19 -42 -27
-378 -477 -422 -565 -20 -38 -26 -69 -31 -153 -6 -108 -16 -142 -50 -160 -11
-6 -102 -10 -222 -10 -192 0 -206 1 -253 24 -30 14 -133 96 -254 202 l-204
179 249 5 c227 5 254 8 305 28 124 49 210 134 270 268 40 88 38 162 -5 218
-55 73 -39 71 -541 73 -346 1 -464 -1 -511 -12z m946 -125 c27 -27 25 -49 -10
-124 -43 -90 -119 -159 -207 -186 -58 -18 -93 -20 -302 -20 -218 0 -238 -2
-269 -20 -55 -34 -69 -113 -29 -168 41 -56 433 -390 499 -424 l63 -33 242 -3
c226 -3 244 -2 281 17 85 44 122 119 122 253 0 49 6 86 19 113 26 56 358 507
384 522 51 28 -22 67 1200 -639 142 -82 273 -152 291 -155 63 -10 136 54 136
119 0 56 -41 224 -67 277 -36 71 -112 147 -189 188 -77 41 -95 62 -101 115 -6
55 26 106 79 126 36 14 43 12 250 -59 231 -79 258 -95 277 -165 6 -21 11 -103
11 -180 l0 -142 40 -60 40 -60 0 -110 c0 -61 -5 -123 -11 -139 -16 -45 -77
-100 -123 -112 -28 -8 -182 -11 -506 -9 l-465 3 -3 53 -3 52 -60 0 -59 0 0
-55 0 -55 -1052 2 -1053 3 -41 22 c-56 30 -104 89 -132 162 -33 86 -94 145
-239 229 -135 80 -183 127 -209 205 -22 65 -15 183 14 250 25 56 101 140 157
172 85 51 118 54 578 54 414 1 428 0 447 -19z"/>
</g>
</svg>
