<?xml version="1.0" standalone="no"?>
<!DOCTYPE svg PUBLIC "-//W3C//DTD SVG 20010904//EN"
 "http://www.w3.org/TR/2001/REC-SVG-20010904/DTD/svg10.dtd">
<svg version="1.0" xmlns="http://www.w3.org/2000/svg"
 width="300.000000pt" height="240.000000pt" viewBox="0 0 300.000000 240.000000"
 preserveAspectRatio="xMidYMid meet">
<metadata>
Created by potrace 1.10, written by Peter Selinger 2001-2011
</metadata>
<g transform="translate(0.000000,240.000000) scale(0.100000,-0.100000)"
fill="#ff1801" stroke="none">
<path d="M2424 2301 c-42 -19 -65 -45 -259 -296 -33 -42 -72 -83 -87 -91 -15
-8 -56 -14 -95 -14 -118 0 -219 -17 -573 -94 -366 -80 -429 -101 -473 -160
-13 -17 -49 -84 -80 -149 -59 -124 -85 -150 -127 -127 -37 20 -40 44 -40 289
0 254 -3 277 -48 324 -40 42 -80 60 -137 60 -70 0 -127 -31 -160 -87 l-26 -44
1 -561 0 -561 -45 0 -45 0 0 -45 0 -45 45 0 46 0 -2 -149 c-1 -130 2 -154 19
-187 35 -69 93 -104 172 -104 61 0 107 18 145 55 49 50 55 78 55 279 0 179 1
185 22 200 36 26 60 2 74 -76 18 -95 45 -141 116 -196 114 -86 134 -109 157
-170 12 -34 36 -74 57 -95 66 -65 85 -70 334 -80 257 -11 289 -6 351 50 49 44
67 78 109 208 45 141 74 176 222 270 141 88 190 136 208 199 16 60 6 113 -37
183 -45 74 -53 103 -39 135 6 15 52 78 101 141 74 95 98 118 137 135 73 31 77
45 110 377 30 316 29 334 -21 389 -51 56 -116 69 -187 37z m121 -96 c14 -13
25 -30 25 -38 0 -8 -9 -106 -20 -218 -11 -112 -22 -233 -26 -269 -8 -83 -16
-97 -66 -117 -32 -13 -61 -42 -140 -142 -55 -69 -107 -142 -115 -161 -25 -57
-13 -124 35 -204 73 -121 60 -150 -117 -264 -189 -121 -223 -163 -282 -348
-55 -171 -73 -184 -245 -183 -66 0 -169 4 -230 8 -140 9 -171 27 -206 124 -23
65 -49 94 -178 200 -60 49 -66 57 -79 113 -25 107 -41 145 -75 165 -58 36
-144 19 -180 -35 -13 -21 -16 -59 -19 -219 -2 -217 -8 -236 -74 -263 -42 -18
-88 -6 -124 32 -23 24 -24 34 -27 170 l-3 144 45 0 46 0 0 45 0 45 -45 0 -45
0 0 543 c0 415 3 548 13 567 7 14 28 34 48 44 43 23 80 16 115 -21 l24 -26 0
-245 c0 -228 1 -249 21 -288 29 -62 75 -88 145 -82 75 6 103 36 173 183 32 66
69 130 82 141 33 29 47 33 439 120 299 66 362 76 470 81 199 7 198 6 391 253
62 80 120 150 128 157 26 20 70 15 96 -12z m-2154 -1429 l29 -25 -31 -30 c-17
-17 -28 -36 -24 -43 3 -7 -2 -2 -12 12 -10 13 -26 31 -35 39 -21 18 -23 31 -5
31 7 0 18 9 25 20 15 25 18 25 53 -4z"/>
</g>
</svg>
