<?xml version="1.0" standalone="no"?>
<!DOCTYPE svg PUBLIC "-//W3C//DTD SVG 20010904//EN"
 "http://www.w3.org/TR/2001/REC-SVG-20010904/DTD/svg10.dtd">
<svg version="1.0" xmlns="http://www.w3.org/2000/svg"
 width="300.000000pt" height="225.000000pt" viewBox="0 0 300.000000 225.000000"
 preserveAspectRatio="xMidYMid meet">
<metadata>
Created by potrace 1.10, written by Peter Selinger 2001-2011
</metadata>
<g transform="translate(0.000000,225.000000) scale(0.100000,-0.100000)"
fill="#ff1801" stroke="none">
<path d="M2455 1559 l-200 -80 -145 -10 c-279 -17 -320 -15 -470 24 -170 45
-293 67 -381 67 -62 0 -69 2 -69 20 0 17 -7 20 -40 20 -35 0 -40 -3 -40 -24 0
-22 -5 -23 -72 -29 -101 -9 -278 -46 -307 -64 -13 -8 -30 -33 -39 -54 -12 -32
-28 -47 -91 -83 -42 -24 -83 -52 -92 -62 -9 -11 -69 -156 -134 -323 -114 -294
-117 -306 -112 -364 6 -68 23 -46 -156 -205 -102 -91 -125 -122 -92 -122 11 0
12 -6 6 -22 -6 -16 -3 -30 7 -45 13 -21 13 -23 -7 -23 -29 0 -27 -28 4 -42 20
-9 73 -3 272 29 229 37 257 39 363 32 63 -4 155 -8 204 -8 l89 -1 36 38 c20
21 49 64 66 95 l29 55 -37 197 -37 196 27 47 c14 26 28 49 29 50 2 2 19 -1 38
-8 29 -9 113 -7 410 11 355 21 376 21 392 5 45 -45 59 -43 223 41 167 85 183
98 356 293 73 81 89 94 182 140 109 55 127 70 137 113 8 33 -25 115 -58 146
-44 42 -76 36 -291 -50z m255 -35 c11 -20 19 -42 17 -49 -3 -6 -48 -32 -100
-57 -92 -45 -98 -50 -233 -197 l-139 -150 -143 -76 c-78 -41 -144 -75 -147
-75 -3 0 -5 6 -5 13 0 37 -41 38 -426 16 -316 -19 -382 -20 -427 -9 -71 17
-86 8 -137 -84 l-41 -75 37 -189 c20 -105 34 -201 30 -214 -3 -12 -22 -45 -42
-72 l-36 -48 -51 6 c-29 3 -120 8 -202 12 -144 6 -161 5 -378 -32 -157 -26
-230 -35 -237 -28 -8 8 31 48 123 130 162 144 172 157 164 233 -6 54 -1 68
111 356 l117 301 84 49 c46 28 88 57 92 65 4 8 14 28 21 45 12 28 19 31 128
53 66 13 153 23 205 24 50 0 93 5 96 10 12 19 221 -10 404 -57 l180 -46 170 6
c302 12 317 14 530 99 105 41 195 75 202 75 6 1 21 -15 33 -35z m-1531 13 c6
-8 8 -17 4 -20 -10 -11 -51 -8 -58 3 -17 27 33 42 54 17z"/>
</g>
</svg>
