<?xml version="1.0" standalone="no"?>
<!DOCTYPE svg PUBLIC "-//W3C//DTD SVG 20010904//EN"
 "http://www.w3.org/TR/2001/REC-SVG-20010904/DTD/svg10.dtd">
<svg version="1.0" xmlns="http://www.w3.org/2000/svg"
 width="300.000000pt" height="191.000000pt" viewBox="0 0 300.000000 191.000000"
 preserveAspectRatio="xMidYMid meet">
<metadata>
Created by potrace 1.10, written by Peter Selinger 2001-2011
</metadata>
<g transform="translate(0.000000,191.000000) scale(0.100000,-0.100000)"
fill="#ff1801" stroke="none">
<path d="M1888 1680 c-343 -28 -347 -30 -763 -278 l-250 -150 -15 29 -15 29
-34 -21 c-31 -19 -32 -21 -17 -38 9 -10 16 -22 16 -28 0 -6 -74 -54 -164 -107
-201 -118 -214 -128 -222 -171 -9 -48 3 -74 55 -122 l46 -42 5 -138 c5 -128 8
-142 35 -191 39 -72 91 -116 194 -166 l86 -41 625 -3 c452 -2 632 1 652 9 40
17 85 72 99 121 7 26 9 88 7 158 -5 134 -23 181 -92 249 -38 37 -77 56 -341
161 -163 65 -306 127 -318 137 -31 28 -54 91 -61 169 -6 60 -4 72 11 86 28 25
243 112 253 102 5 -5 2 -39 -6 -79 -23 -108 -7 -165 59 -205 81 -50 182 -10
214 83 38 112 75 168 128 198 28 15 62 31 76 34 l26 6 -42 -88 c-76 -159 -79
-195 -28 -296 65 -130 115 -164 299 -208 156 -36 215 -36 262 2 49 39 65 82
70 195 4 85 1 107 -15 145 -27 59 -291 388 -334 416 -100 64 -173 70 -501 43z
m378 -65 c27 -9 66 -28 86 -43 38 -28 277 -323 305 -377 12 -23 14 -50 10
-125 -5 -90 -7 -96 -37 -122 -16 -16 -42 -28 -56 -28 -33 0 -238 47 -278 64
-69 29 -148 143 -149 216 -1 23 19 80 58 164 56 122 58 130 44 155 -19 35 -46
37 -127 10 -124 -41 -180 -95 -223 -219 -34 -100 -73 -130 -129 -100 -38 20
-42 45 -25 136 9 47 13 94 10 104 -9 27 -53 60 -82 60 -38 0 -265 -98 -295
-127 -15 -15 -31 -41 -34 -59 -9 -48 12 -188 35 -232 37 -73 73 -93 383 -216
384 -152 386 -154 389 -370 1 -134 -7 -162 -51 -186 -13 -7 -214 -10 -629 -8
l-609 3 -88 45 c-96 49 -144 98 -164 168 -5 20 -10 86 -10 145 0 128 -12 162
-71 203 -21 14 -39 35 -39 45 0 12 52 49 176 123 96 58 179 106 184 106 5 0
11 -9 15 -20 6 -19 8 -19 38 -4 43 22 43 21 23 43 -17 19 -17 20 6 34 109 69
531 314 572 333 87 40 169 55 404 73 291 24 299 24 358 6z m-1382 -394 c10
-15 -5 -41 -23 -41 -25 0 -32 10 -20 31 10 20 34 25 43 10z"/>
</g>
</svg>
