<?xml version="1.0" standalone="no"?>
<!DOCTYPE svg PUBLIC "-//W3C//DTD SVG 20010904//EN"
 "http://www.w3.org/TR/2001/REC-SVG-20010904/DTD/svg10.dtd">
<svg version="1.0" xmlns="http://www.w3.org/2000/svg"
 width="199.000000pt" height="102.000000pt" viewBox="0 0 199.000000 102.000000"
 preserveAspectRatio="xMidYMid meet">
<metadata>
Created by potrace 1.10, written by Peter Selinger 2001-2011
</metadata>
<g transform="translate(0.000000,102.000000) scale(0.100000,-0.100000)"
fill="#ff1801" stroke="none">
<path d="M1620 942 c-8 -4 -35 -20 -60 -36 -25 -17 -71 -47 -103 -67 -31 -21
-84 -59 -117 -86 -136 -109 -215 -176 -223 -189 -4 -7 -31 -24 -60 -38 -132
-64 -167 -90 -167 -122 0 -23 -3 -24 -39 -18 -46 7 -91 -19 -116 -67 -18 -35
-27 -36 -65 -8 -21 16 -35 20 -57 14 -15 -4 -48 -9 -73 -11 -47 -4 -82 -16
-187 -65 -35 -16 -66 -29 -71 -29 -22 0 -52 -48 -52 -82 0 -47 36 -78 90 -78
47 0 92 32 72 52 -10 10 -16 10 -32 0 -27 -17 -65 -15 -84 4 -9 8 -16 19 -16
22 0 12 31 52 40 52 5 0 37 13 72 29 84 39 151 59 220 64 47 5 59 2 74 -14 9
-10 24 -19 32 -19 20 0 72 39 72 55 0 7 15 22 33 32 26 15 38 17 61 9 24 -9
31 -7 47 13 10 13 19 31 19 40 0 11 20 28 53 45 28 15 67 36 86 47 18 11 45
19 60 17 21 -2 25 1 23 18 -3 21 12 36 103 109 28 22 52 42 55 45 45 47 317
230 342 230 21 0 44 -46 31 -62 -6 -7 -14 -28 -18 -47 -14 -65 -63 -135 -132
-189 -68 -53 -107 -65 -189 -57 -84 8 -103 0 -132 -49 -16 -27 -29 -36 -59
-41 -68 -11 -97 -28 -153 -86 -36 -37 -74 -65 -110 -80 -30 -12 -71 -38 -90
-57 -66 -63 -143 -89 -170 -57 -9 11 -32 14 -100 11 -48 -1 -92 -6 -98 -10
-19 -11 -43 -64 -33 -71 11 -6 24 11 17 23 -5 9 3 10 94 18 36 3 69 9 73 14 5
4 19 -3 32 -16 13 -13 35 -24 49 -24 40 0 112 36 159 79 23 22 65 48 91 59 45
17 126 84 126 104 0 14 102 58 133 58 30 0 77 39 77 64 0 21 23 25 115 23 67
-1 88 2 125 22 111 57 185 149 215 266 21 79 19 100 -11 124 -27 21 -47 25
-74 13z"/>
<path d="M1625 875 c-11 -9 -57 -40 -103 -70 -125 -81 -342 -256 -342 -276 0
-13 8 -9 34 17 34 34 34 34 131 34 94 0 98 1 151 36 83 55 126 117 153 219 12
46 3 61 -24 40z m-30 -91 c-20 -48 -45 -78 -106 -126 -42 -34 -61 -42 -105
-46 -47 -4 -53 -2 -48 12 3 9 10 16 16 16 5 0 31 18 57 40 40 34 190 139 199
140 1 0 -4 -16 -13 -36z"/>
<path d="M1305 808 c-26 -15 -44 -39 -44 -58 0 -9 4 -6 9 7 9 22 35 40 79 54
l26 7 -25 1 c-14 0 -34 -5 -45 -11z"/>
<path d="M974 412 c-23 -18 -39 -52 -25 -52 5 0 21 16 35 35 29 38 24 45 -10
17z"/>
<path d="M799 299 c-16 -17 -29 -34 -29 -38 0 -11 -48 -31 -74 -31 -13 0 -29
7 -36 15 -11 13 -26 15 -84 9 -73 -7 -119 -21 -223 -69 -61 -28 -78 -50 -49
-61 19 -7 34 2 86 50 41 38 46 40 134 47 74 6 95 5 115 -8 37 -24 84 -9 147
48 30 27 61 49 70 49 8 0 12 5 9 10 -11 18 -37 10 -66 -21z"/>
<path d="M550 75 c4 -25 5 -45 3 -45 -3 0 -22 19 -44 42 -21 23 -41 39 -44 36
-3 -2 13 -21 34 -41 22 -20 44 -45 50 -54 5 -10 12 -15 15 -13 7 8 -5 120 -14
120 -4 0 -4 -20 0 -45z"/>
<path d="M611 95 c-1 -11 2 -37 5 -57 6 -33 10 -38 33 -37 23 2 24 2 4 6 -18
3 -23 11 -24 36 0 18 -4 41 -9 52 -9 20 -9 20 -9 0z"/>
<path d="M418 65 c13 -25 60 -70 67 -64 2 3 -14 23 -36 45 -23 21 -37 30 -31
19z"/>
</g>
</svg>
