<?xml version="1.0" standalone="no"?>
<!DOCTYPE svg PUBLIC "-//W3C//DTD SVG 20010904//EN"
 "http://www.w3.org/TR/2001/REC-SVG-20010904/DTD/svg10.dtd">
<svg version="1.0" xmlns="http://www.w3.org/2000/svg"
 width="182.000000pt" height="129.000000pt" viewBox="0 0 182.000000 129.000000"
 preserveAspectRatio="xMidYMid meet">
<metadata>
Created by potrace 1.10, written by Peter Selinger 2001-2011
</metadata>
<g transform="translate(0.000000,129.000000) scale(0.100000,-0.100000)"
fill="#ff1801" stroke="none">
<path d="M812 1278 c-7 -7 -12 -18 -12 -25 0 -15 35 -68 89 -132 23 -27 41
-54 41 -61 0 -22 -33 -39 -52 -29 -12 6 -18 6 -18 0 0 -19 41 -23 65 -7 28 19
32 47 10 66 -19 16 -125 156 -125 166 0 4 8 13 18 20 9 7 12 14 7 14 -6 0 -16
-5 -23 -12z"/>
<path d="M1010 1284 c0 -11 49 -86 64 -97 6 -4 24 -5 40 -2 20 3 33 0 42 -12
18 -25 18 -28 -11 -41 -60 -28 -100 -7 -160 83 -30 45 -41 55 -63 54 -24 -2
-24 -2 -4 -6 12 -2 30 -17 39 -31 78 -126 154 -160 216 -97 16 15 15 18 -4 44
-17 24 -27 28 -54 24 -29 -4 -36 0 -61 34 -39 53 -44 59 -44 47z"/>
<path d="M1135 1261 c30 -59 94 -78 155 -46 33 17 36 31 16 58 -14 18 -51 23
-60 8 -3 -4 5 -6 18 -4 17 4 27 -1 35 -16 10 -18 7 -22 -18 -36 -47 -24 -79
-19 -112 16 -16 17 -29 35 -29 40 0 5 -5 9 -10 9 -6 0 -4 -13 5 -29z"/>
<path d="M883 1245 c8 -16 42 -65 76 -109 46 -59 58 -82 52 -95 -14 -25 -59
-71 -71 -71 -5 0 -10 -5 -10 -10 0 -18 54 16 78 49 29 40 28 60 -5 97 -16 17
-40 48 -56 70 -15 21 -39 53 -53 69 l-26 30 15 -30z"/>
<path d="M633 1128 c-30 -32 -32 -36 -38 -135 -6 -92 3 -119 21 -66 18 50 24
153 10 153 -6 0 8 10 31 22 23 12 40 25 37 30 -6 9 26 -1 42 -14 7 -5 16 -7
20 -6 5 2 10 0 12 -4 20 -51 29 -88 22 -83 -31 19 11 -46 72 -112 26 -28 48
-57 48 -63 0 -20 -21 -105 -31 -122 -5 -10 -9 -31 -9 -48 0 -28 3 -30 36 -30
48 0 118 33 162 79 44 45 65 84 132 253 29 76 64 98 151 98 81 0 106 -14 136
-70 13 -25 33 -60 43 -78 11 -18 20 -42 20 -53 0 -17 -108 -157 -167 -217 -7
-7 -13 -24 -13 -37 0 -22 105 -199 177 -298 43 -58 45 -93 9 -124 l-27 -23
-537 0 c-581 0 -575 0 -601 55 -12 25 -12 32 0 54 8 14 23 30 34 36 11 6 51
28 88 49 63 36 68 40 65 69 -2 19 -11 36 -23 42 -71 36 -138 80 -150 98 -8 12
-39 99 -70 192 l-57 170 37 31 c52 46 139 59 166 27 8 -10 26 -50 39 -90 13
-41 31 -74 39 -76 9 -3 24 -8 34 -12 14 -6 17 -2 17 20 0 19 -6 28 -20 32 -22
6 -50 50 -50 78 0 27 -30 71 -60 89 -37 21 -68 20 -134 -5 -63 -23 -96 -58
-96 -100 0 -32 104 -352 125 -385 7 -12 50 -40 94 -63 45 -23 81 -45 81 -50 0
-4 -39 -27 -86 -52 -48 -24 -93 -53 -100 -64 -29 -46 -16 -125 26 -155 27 -19
46 -20 372 -23 188 -2 445 -2 570 0 l227 4 31 30 c49 49 43 85 -34 199 -35 52
-84 128 -110 169 l-45 74 52 61 c28 34 55 63 58 66 27 22 79 107 79 127 0 31
-71 166 -108 206 -25 26 -29 27 -129 27 -100 0 -103 -1 -137 -31 -19 -16 -38
-40 -42 -52 -3 -12 -26 -70 -50 -128 -31 -74 -55 -116 -82 -141 -38 -38 -115
-82 -130 -76 -5 1 1 35 14 73 35 104 33 110 -43 186 -49 48 -68 73 -68 93 -1
14 3 26 7 26 13 0 -17 52 -42 75 -15 14 -37 20 -71 21 -41 1 -53 -4 -76 -28z"/>
<path d="M684 1088 c-4 -6 -2 -14 5 -16 7 -2 16 -9 21 -16 47 -57 62 -79 47
-67 -10 8 -17 9 -17 3 0 -27 24 -67 64 -108 l45 -45 -15 -42 c-42 -116 -33
-183 27 -207 91 -38 259 65 323 196 29 62 30 64 67 157 13 32 30 62 39 66 8 5
40 8 70 7 l54 -1 39 -67 38 -67 -77 -88 c-123 -141 -134 -170 -91 -234 12 -19
45 -70 72 -114 27 -44 66 -103 87 -132 21 -29 38 -56 38 -61 0 -14 -1072 -10
-1077 3 -2 6 36 31 83 55 121 62 149 114 104 188 -14 22 -43 44 -94 69 -74 36
-75 38 -97 97 -12 34 -25 66 -29 71 -4 6 -11 26 -15 45 -4 19 -11 40 -16 46
-6 7 -12 25 -14 40 -2 16 -7 39 -11 51 -5 19 0 23 35 34 39 12 42 11 66 -15
18 -19 23 -32 16 -40 -10 -12 8 -86 21 -86 5 0 8 -13 8 -28 0 -65 102 -103
141 -54 22 28 25 81 7 101 -11 11 -10 13 4 8 13 -5 18 5 27 57 14 79 14 113 0
122 -8 5 -8 9 1 14 7 4 9 13 6 19 -11 17 -25 13 -25 -6 0 -10 -4 -45 -9 -78
-6 -35 -6 -67 -1 -77 5 -10 5 -18 -1 -20 -6 -2 -13 -21 -16 -43 -10 -72 -14
-83 -33 -88 -13 -3 -29 5 -47 24 -15 15 -30 26 -34 24 -3 -2 -5 10 -4 26 2 35
-33 147 -55 172 -11 14 -24 17 -47 12 -42 -7 -91 -32 -97 -48 -7 -19 20 -117
38 -137 8 -9 12 -20 8 -23 -3 -4 -2 -7 4 -7 6 0 14 -7 17 -16 6 -15 4 -15 -11
-3 -15 13 -16 12 -9 -6 5 -11 20 -51 34 -90 14 -38 28 -74 33 -80 4 -5 42 -28
84 -50 86 -45 109 -74 92 -115 -13 -29 -17 -31 -117 -86 -80 -45 -98 -74 -65
-108 15 -14 72 -16 561 -16 569 0 574 0 574 41 0 7 -38 69 -84 138 -120 181
-139 217 -132 245 3 14 42 66 87 118 44 51 85 102 90 114 8 16 3 33 -27 85
-59 101 -57 99 -144 99 -92 0 -104 -10 -140 -110 -58 -158 -117 -241 -206
-289 -78 -42 -147 -37 -159 11 -3 13 3 52 14 88 31 98 26 132 -19 142 -20 4
-49 51 -68 112 -23 76 -67 118 -88 84z"/>
</g>
</svg>
