<?xml version="1.0" standalone="no"?>
<!DOCTYPE svg PUBLIC "-//W3C//DTD SVG 20010904//EN"
 "http://www.w3.org/TR/2001/REC-SVG-20010904/DTD/svg10.dtd">
<svg version="1.0" xmlns="http://www.w3.org/2000/svg"
 width="300.000000pt" height="228.000000pt" viewBox="0 0 300.000000 228.000000"
 preserveAspectRatio="xMidYMid meet">
<metadata>
Created by potrace 1.10, written by Peter Selinger 2001-2011
</metadata>
<g transform="translate(0.000000,228.000000) scale(0.100000,-0.100000)"
fill="#ff1801" stroke="none">
<path d="M734 2061 c-37 -23 -59 -77 -49 -121 6 -29 0 -37 -77 -113 -46 -45
-103 -107 -126 -138 -96 -127 -241 -491 -294 -734 -17 -81 -16 -441 2 -475 37
-72 82 -90 182 -70 57 11 70 10 132 -9 37 -11 84 -21 103 -21 43 0 83 37 83
78 0 48 -40 150 -128 324 l-84 167 12 58 c6 32 13 68 16 81 5 26 58 62 91 62
18 0 29 -13 52 -64 31 -68 65 -96 116 -96 14 0 66 20 115 45 93 47 120 76 120
130 0 33 -2 37 -127 237 -76 122 -103 173 -98 188 7 22 180 160 201 160 8 0
22 -8 32 -18 16 -16 222 -411 222 -426 0 -3 -15 -13 -32 -22 -18 -9 -34 -18
-36 -19 -6 -5 34 -65 44 -65 5 0 19 7 30 15 31 23 39 18 69 -45 41 -85 72
-112 137 -118 49 -4 64 1 189 62 95 45 142 73 154 93 13 19 21 57 26 118 14
191 60 228 351 280 206 38 287 74 396 179 l62 60 98 1 c125 2 164 18 188 81
16 41 16 48 1 78 -9 20 -31 40 -54 52 -37 18 -78 19 -1063 22 -998 2 -1026 2
-1056 -17z m2089 -75 c9 -4 17 -14 17 -21 0 -29 -33 -40 -124 -41 -50 -1 -101
-2 -113 -3 -12 -1 -51 -30 -90 -70 -84 -83 -180 -132 -300 -155 -46 -9 -119
-23 -163 -31 -226 -43 -303 -122 -317 -320 -3 -44 -11 -86 -17 -94 -6 -8 -62
-39 -125 -68 -150 -70 -163 -69 -213 17 -21 36 -38 68 -38 71 0 4 14 12 30 19
35 15 36 20 12 59 l-18 30 -30 -18 -29 -18 -108 211 c-60 116 -118 221 -129
233 -27 29 -80 46 -118 38 -29 -6 -142 -87 -208 -149 -18 -17 -37 -47 -43 -68
-13 -50 0 -78 124 -277 54 -84 97 -159 97 -166 0 -17 -16 -29 -88 -65 -35 -17
-71 -29 -81 -25 -9 3 -25 27 -35 55 -36 100 -111 126 -208 73 -61 -33 -73 -56
-94 -176 l-17 -95 85 -168 c89 -175 136 -290 124 -301 -4 -4 -23 -2 -44 4
-133 38 -127 37 -202 23 -93 -18 -96 -14 -105 128 -14 205 2 320 76 550 99
304 171 436 321 586 111 112 125 135 114 186 -13 65 -96 61 1023 58 559 -2
1024 -7 1034 -12z m-1502 -675 c3 -3 0 -21 -6 -40 -7 -20 -15 -29 -19 -22 -4
6 -16 11 -27 11 -22 0 -23 8 -9 45 8 21 14 25 33 20 12 -4 25 -10 28 -14z"/>
<path d="M2824 414 c-41 -20 -64 -63 -64 -119 0 -42 5 -51 51 -100 28 -30 60
-57 71 -61 34 -10 76 15 98 60 24 50 25 60 5 52 -8 -3 -15 -1 -15 5 0 5 7 12
15 15 19 7 20 54 2 54 -17 0 -50 -36 -71 -78 l-17 -32 -29 34 c-31 35 -39 73
-18 94 7 7 32 12 58 12 76 0 90 8 90 46 l0 34 -72 0 c-44 0 -85 -6 -104 -16z"/>
</g>
</svg>
