<?xml version="1.0" standalone="no"?>
<!DOCTYPE svg PUBLIC "-//W3C//DTD SVG 20010904//EN"
 "http://www.w3.org/TR/2001/REC-SVG-20010904/DTD/svg10.dtd">
<svg version="1.0" xmlns="http://www.w3.org/2000/svg"
 width="197.000000pt" height="133.000000pt" viewBox="0 0 197.000000 133.000000"
 preserveAspectRatio="xMidYMid meet">
<metadata>
Created by potrace 1.10, written by Peter Selinger 2001-2011
</metadata>
<g transform="translate(0.000000,133.000000) scale(0.100000,-0.100000)"
fill="#ff1801" stroke="none">
<path d="M425 936 c-34 -34 -31 -63 9 -101 76 -72 146 -82 229 -35 77 43 114
40 211 -15 44 -25 81 -45 82 -45 2 0 36 -20 76 -44 40 -24 83 -47 96 -51 27
-8 27 -13 2 -45 -12 -16 -20 -41 -20 -67 0 -33 -5 -45 -22 -55 -28 -15 -130
-17 -149 -2 -8 6 -50 31 -94 54 -44 24 -94 51 -111 61 -44 24 -124 20 -163 -9
-39 -29 -47 -28 -88 8 -33 29 -57 36 -118 31 -69 -6 -125 -58 -132 -123 -4
-37 -1 -49 22 -77 26 -30 31 -32 89 -31 33 1 84 -3 111 -9 29 -7 124 -11 225
-10 174 2 175 2 235 -27 57 -27 67 -29 190 -29 145 0 158 4 430 118 134 56
189 87 205 117 14 26 3 68 -21 81 -20 10 -16 33 4 26 23 -8 67 24 88 64 17 34
19 46 9 68 -7 18 -8 36 -2 52 12 31 -9 75 -40 82 -13 3 -70 6 -128 6 -112 1
-717 17 -1017 26 l-183 6 -25 -25z m940 -37 c291 -9 404 -15 414 -24 11 -11
11 -19 0 -51 -11 -29 -11 -38 -1 -41 18 -7 15 -22 -13 -59 -21 -28 -32 -33
-73 -36 -40 -3 -47 -6 -50 -26 -3 -16 5 -27 27 -40 40 -22 50 -51 25 -70 -23
-17 -195 -102 -209 -102 -5 -1 -28 -9 -50 -20 -22 -11 -47 -19 -55 -20 -9 0
-20 -4 -25 -9 -28 -25 -159 -53 -252 -53 -95 -1 -136 9 -228 52 -11 5 -117 12
-235 15 -328 8 -327 8 -350 27 -31 27 -26 74 10 108 53 49 127 51 170 4 31
-31 69 -31 137 2 l54 27 77 -40 c42 -22 109 -57 147 -78 67 -35 73 -37 144
-32 66 4 77 7 98 31 15 18 23 40 23 65 0 28 7 44 30 66 17 16 30 32 30 36 0 4
-37 28 -82 54 -46 26 -114 66 -153 88 -141 82 -153 87 -216 87 -44 0 -73 -7
-109 -25 -64 -32 -106 -32 -158 2 -45 30 -55 44 -45 69 7 19 13 19 918 -7z"/>
<path d="M472 889 c7 -21 80 -60 103 -55 11 2 47 16 80 30 l60 26 -85 0 c-47
0 -102 3 -124 7 -31 5 -38 3 -34 -8z"/>
<path d="M890 847 c70 -35 193 -104 307 -174 12 -7 27 -22 33 -33 10 -18 6
-25 -24 -52 -31 -27 -36 -38 -36 -75 0 -35 -6 -49 -26 -68 -35 -33 -97 -49
-157 -41 -44 6 -185 71 -259 120 -37 24 -100 23 -136 -3 -43 -30 -89 -27 -132
9 -46 40 -103 41 -143 5 -53 -50 -31 -86 48 -78 34 4 60 1 76 -8 18 -11 73
-14 224 -14 l200 -1 60 -29 c56 -27 68 -29 175 -29 111 0 131 4 235 44 11 4
47 17 80 30 102 38 241 103 260 121 6 6 -1 19 -23 35 -22 18 -32 34 -32 53 0
38 17 51 67 51 34 0 46 5 59 25 12 19 14 29 5 38 -7 9 -8 24 -1 47 5 18 8 36
5 39 -2 4 -118 8 -257 10 -139 1 -343 6 -453 11 -110 5 -209 10 -220 10 -11 0
18 -19 65 -43z m507 -13 l311 -7 4 -34 c5 -41 3 -43 -43 -43 -67 0 -110 -66
-83 -128 7 -18 18 -32 24 -32 5 0 10 -4 10 -8 0 -19 -432 -183 -446 -169 -4 4
1 16 10 26 10 11 20 39 23 62 5 32 15 52 40 75 63 59 38 95 -130 188 -65 36
-123 66 -128 66 -5 0 -9 5 -9 11 0 8 17 9 53 6 28 -3 192 -9 364 -13z m-966
-321 c46 -27 38 -44 -14 -28 -27 8 -49 10 -58 4 -20 -13 -29 -11 -29 6 0 15
31 33 58 34 8 1 27 -7 43 -16z m277 -20 l37 -17 -85 -7 c-47 -4 -87 -5 -89 -3
-6 6 64 44 82 44 10 0 34 -8 55 -17z"/>
<path d="M1434 343 c11 -19 -5 -45 -25 -40 -11 3 -19 1 -19 -5 0 -15 42 -5 54
14 8 13 7 21 -3 30 -8 8 -11 8 -7 1z"/>
<path d="M1326 289 c-27 -22 -28 -25 -22 -86 4 -35 4 -63 0 -63 -4 0 -24 20
-46 45 -43 49 -115 106 -89 70 15 -20 67 -72 125 -124 l29 -26 -6 75 c-4 56
-2 80 8 94 18 24 35 12 35 -27 1 -35 15 -105 24 -114 9 -9 158 -33 167 -27 5
3 9 -2 9 -10 0 -15 -39 -48 -49 -42 -10 7 -136 18 -131 12 3 -3 39 -10 79 -17
73 -11 73 -11 102 17 16 15 29 31 29 35 0 8 -26 14 -95 24 -115 16 -109 10
-120 105 -10 79 -16 85 -49 59z"/>
<path d="M1127 252 c-10 -10 -17 -22 -17 -27 0 -5 30 -39 68 -75 37 -36 83
-85 103 -108 38 -44 61 -57 36 -21 -8 11 -55 62 -105 113 -86 89 -90 94 -76
115 19 26 13 28 -9 3z"/>
<path d="M1122 90 c-27 -11 -65 -48 -75 -73 -10 -27 6 -20 28 13 44 65 160 83
140 21 -4 -15 -15 -21 -34 -21 -15 0 -36 -7 -47 -16 -19 -15 -19 -16 1 -8 11
4 31 8 45 9 16 1 31 12 40 29 14 25 13 28 -4 42 -22 16 -60 17 -94 4z"/>
</g>
</svg>
