<?xml version="1.0" standalone="no"?>
<!DOCTYPE svg PUBLIC "-//W3C//DTD SVG 20010904//EN"
 "http://www.w3.org/TR/2001/REC-SVG-20010904/DTD/svg10.dtd">
<svg version="1.0" xmlns="http://www.w3.org/2000/svg"
 width="187.000000pt" height="150.000000pt" viewBox="0 0 187.000000 150.000000"
 preserveAspectRatio="xMidYMid meet">
<metadata>
Created by potrace 1.10, written by Peter Selinger 2001-2011
</metadata>
<g transform="translate(0.000000,150.000000) scale(0.100000,-0.100000)"
fill="#ff1801" stroke="none">
<path d="M1308 1243 c-23 -21 -77 -72 -120 -113 -90 -87 -94 -101 -52 -187 36
-72 26 -83 -70 -83 -40 0 -99 -7 -131 -16 -46 -12 -106 -15 -258 -13 -226 2
-209 8 -270 -94 -55 -91 -80 -212 -75 -355 4 -102 8 -124 31 -170 15 -30 27
-69 27 -88 0 -24 6 -38 24 -49 28 -19 183 -34 219 -22 29 9 50 51 41 81 -8 26
-44 66 -60 66 -16 0 -84 77 -84 95 0 9 8 27 17 41 13 20 16 45 14 107 -1 45
-6 86 -11 92 -6 7 -3 31 7 62 18 58 20 59 136 62 48 1 86 -3 104 -12 15 -7 52
-12 82 -11 46 1 56 5 62 23 8 20 15 21 117 21 152 0 252 34 365 122 69 55 167
258 167 348 0 45 -39 70 -101 63 -46 -5 -49 -4 -49 17 0 13 -8 29 -17 36 -32
24 -70 16 -115 -23z m102 -82 c3 -41 10 -76 16 -78 6 -2 8 10 6 34 -6 44 15
63 69 63 54 0 63 -37 31 -125 -51 -137 -107 -212 -200 -267 -91 -54 -143 -68
-289 -75 -102 -5 -133 -9 -133 -20 0 -14 -10 -17 -50 -14 -14 1 -86 4 -161 7
-134 5 -137 5 -153 -17 -9 -13 -16 -33 -16 -46 0 -12 -5 -25 -11 -29 -7 -4 -8
-22 -4 -48 18 -118 17 -155 -5 -200 -19 -41 -20 -47 -7 -79 16 -37 57 -80 98
-102 33 -17 42 -40 28 -66 -9 -18 -17 -19 -87 -13 -91 7 -125 24 -117 57 4 14
-5 44 -24 82 -29 57 -31 66 -31 184 0 146 18 222 78 319 l38 63 215 3 c136 2
223 7 236 15 12 6 62 11 112 11 82 0 92 2 120 26 37 31 38 40 6 106 -14 28
-25 61 -25 72 0 14 37 56 102 118 80 76 109 97 128 95 24 -2 25 -6 30 -76z"/>
<path d="M1267 1122 l-98 -97 30 -67 c35 -75 32 -99 -15 -134 -23 -16 -51 -23
-128 -28 -54 -4 -109 -12 -123 -17 -13 -5 -116 -9 -228 -9 l-203 0 -29 -47
c-93 -150 -109 -375 -37 -512 14 -26 21 -54 18 -66 -5 -20 0 -23 42 -29 107
-14 144 -2 86 28 -37 19 -94 83 -111 124 -13 30 -12 37 8 73 20 34 22 49 17
107 -4 37 -6 88 -6 113 0 61 32 137 64 149 37 14 227 15 253 2 33 -18 71 -15
83 8 10 18 21 20 125 20 134 0 214 17 302 66 71 40 107 79 150 167 27 52 63
152 63 171 0 3 -16 6 -34 6 -34 0 -35 -1 -38 -47 -2 -40 -7 -49 -24 -51 -31
-4 -43 17 -50 96 -4 40 -10 72 -13 71 -3 0 -50 -44 -104 -97z m83 -7 c0 -47
26 -94 57 -101 15 -3 32 -7 36 -8 5 -1 -9 -27 -30 -59 -26 -40 -58 -71 -104
-102 -79 -53 -119 -62 -76 -17 35 36 35 85 2 143 l-25 44 63 62 c34 34 65 62
70 62 4 1 7 -10 7 -24z m-894 -617 c20 -48 3 -158 -23 -158 -10 0 -13 6 -9 16
3 9 6 49 6 90 0 75 9 93 26 52z"/>
</g>
</svg>
