<?xml version="1.0" standalone="no"?>
<!DOCTYPE svg PUBLIC "-//W3C//DTD SVG 20010904//EN"
 "http://www.w3.org/TR/2001/REC-SVG-20010904/DTD/svg10.dtd">
<svg version="1.0" xmlns="http://www.w3.org/2000/svg"
 width="300.000000pt" height="189.000000pt" viewBox="0 0 300.000000 189.000000"
 preserveAspectRatio="xMidYMid meet">
<metadata>
Created by potrace 1.10, written by Peter Selinger 2001-2011
</metadata>
<g transform="translate(0.000000,189.000000) scale(0.100000,-0.100000)"
fill="#ff1801" stroke="none">
<path d="M1875 1500 c-16 -6 -106 -54 -200 -109 -137 -79 -172 -95 -179 -84
-13 24 -72 44 -98 34 -13 -5 -121 -65 -241 -135 -119 -69 -219 -126 -221 -126
-2 0 -9 14 -16 30 l-12 30 -37 -22 c-20 -12 -37 -23 -39 -24 -2 -1 5 -15 14
-30 16 -23 16 -28 4 -36 -8 -5 -110 -64 -227 -131 -116 -68 -221 -132 -233
-142 -74 -67 -75 -186 -4 -265 43 -47 89 -64 158 -58 47 4 84 23 347 182 162
98 308 187 324 197 17 10 57 20 88 23 72 7 106 25 147 76 37 47 54 49 215 25
213 -32 319 -74 641 -250 200 -109 229 -118 282 -91 15 8 64 52 110 99 80 83
82 86 82 134 0 29 -7 58 -17 73 -39 57 -363 428 -378 434 -24 9 -64 7 -84 -3
-14 -8 -30 2 -82 55 -86 88 -143 116 -239 120 -41 2 -88 -1 -105 -6z m187 -96
c18 -9 67 -50 109 -90 63 -60 83 -74 109 -74 17 0 39 4 49 10 16 8 44 -21 195
-197 97 -113 176 -213 176 -223 0 -15 -149 -170 -165 -170 -4 0 -73 37 -153
82 -367 205 -516 259 -789 287 -119 12 -148 4 -205 -59 -42 -46 -49 -50 -92
-50 -26 0 -62 -6 -80 -14 -18 -7 -172 -98 -342 -202 -273 -166 -314 -188 -352
-189 -37 0 -48 5 -73 33 -37 41 -40 99 -6 135 21 24 449 277 468 277 5 0 9 -3
9 -7 0 -5 4 -14 9 -21 6 -10 15 -9 44 8 42 25 43 27 21 51 -15 16 -13 19 25
38 22 12 122 68 220 126 l180 105 25 -25 c43 -43 71 -35 264 76 96 56 187 105
201 110 36 12 114 3 153 -17z m-1142 -346 c0 -6 15 -8 34 -6 24 3 32 0 29 -9
-3 -7 -9 -13 -13 -13 -4 0 -10 -11 -14 -23 -5 -21 -11 -24 -50 -23 -44 1 -45
1 -31 23 8 12 15 34 15 47 0 18 4 24 15 20 8 -4 15 -11 15 -16z"/>
<path d="M2520 393 c-8 -4 -112 -53 -230 -110 -197 -95 -216 -103 -227 -87 -7
10 -13 24 -13 31 0 17 -9 16 -54 -2 l-36 -15 17 -35 c9 -19 15 -36 12 -38 -2
-1 -65 -32 -140 -67 -133 -64 -134 -65 -95 -68 38 -3 52 1 150 51 17 8 17 6
-3 -18 -12 -16 -19 -30 -17 -33 3 -2 35 10 72 27 75 35 84 37 84 16 0 -19 8
-19 54 0 32 14 35 17 24 35 -7 10 -10 21 -8 22 24 18 442 209 465 214 47 8
114 -32 143 -86 32 -59 25 -88 -30 -126 -39 -27 -46 -29 -130 -26 -96 3 -137
-9 -179 -54 l-22 -24 27 0 c15 0 39 9 54 20 24 18 43 21 125 21 53 0 99 4 102
10 4 5 11 7 16 4 5 -4 2 -17 -7 -31 -23 -35 0 -32 60 8 106 70 116 170 28 287
-45 60 -174 100 -242 74z m-464 -234 c3 -6 22 -9 43 -6 20 3 29 3 21 1 -9 -3
-24 -20 -34 -38 -16 -30 -22 -34 -57 -32 -21 0 -39 3 -39 4 0 2 9 17 21 33 11
16 17 33 14 39 -3 5 1 10 9 10 8 0 18 -5 22 -11z"/>
</g>
</svg>
