<?xml version="1.0" standalone="no"?>
<!DOCTYPE svg PUBLIC "-//W3C//DTD SVG 20010904//EN"
 "http://www.w3.org/TR/2001/REC-SVG-20010904/DTD/svg10.dtd">
<svg version="1.0" xmlns="http://www.w3.org/2000/svg"
 width="482.000000pt" height="421.000000pt" viewBox="0 0 482.000000 421.000000"
 preserveAspectRatio="xMidYMid meet">

<g transform="translate(0.000000,421.000000) scale(0.100000,-0.100000)"
fill="#ff1801" stroke="none">
<path d="M3895 3563 c-185 -42 -446 -110 -542 -142 -238 -79 -388 -93 -990
-90 -420 2 -473 1 -642 -20 -241 -29 -478 -69 -513 -87 -56 -29 -103 -142
-173 -419 l-43 -170 -40 3 c-37 3 -40 1 -46 -29 -12 -64 -8 -89 17 -89 43 0
47 -10 31 -85 -77 -364 -214 -1323 -214 -1495 0 -110 31 -155 149 -215 112
-56 394 -105 520 -89 50 6 61 12 103 55 63 64 228 399 459 929 94 217 189 430
211 473 50 101 72 186 64 251 -10 73 -21 106 -88 249 -34 71 -63 148 -65 171
-5 37 -2 45 22 64 35 28 123 60 215 79 107 22 324 22 421 0 96 -22 165 -64
174 -105 16 -75 -54 -213 -241 -477 -222 -312 -245 -359 -246 -505 -1 -100 20
-190 62 -269 75 -140 165 -221 255 -229 47 -4 55 -1 88 28 100 88 424 580 907
1379 135 224 165 282 247 478 51 122 93 232 93 243 0 35 -26 85 -53 103 -25
16 -93 21 -142 10z m65 -121 c0 -20 -163 -395 -196 -453 -73 -125 -400 -658
-542 -884 -244 -388 -437 -665 -463 -665 -18 0 -108 91 -134 136 -80 136 -90
280 -29 398 14 28 88 139 164 246 234 331 284 430 285 561 0 55 -4 72 -28 108
-55 84 -169 132 -357 152 -255 28 -555 -40 -648 -146 -66 -74 -59 -153 31
-342 71 -151 93 -225 82 -275 -4 -18 -29 -78 -55 -133 -26 -55 -125 -278 -219
-495 -180 -412 -372 -814 -415 -865 -24 -30 -24 -30 -121 -28 -166 5 -360 55
-427 111 l-31 26 6 101 c8 123 64 552 112 855 37 233 102 602 111 633 4 12 16
17 40 17 22 0 34 5 34 14 0 7 3 34 6 60 7 45 6 46 -20 46 -16 0 -26 5 -26 15
0 8 18 84 39 169 40 157 83 280 106 304 15 17 232 55 470 84 164 20 221 21
637 19 605 -3 764 12 1008 91 122 40 528 146 563 147 9 1 17 -3 17 -7z"/>
</g>
</svg>
