<?xml version="1.0" standalone="no"?>
<!DOCTYPE svg PUBLIC "-//W3C//DTD SVG 20010904//EN"
 "http://www.w3.org/TR/2001/REC-SVG-20010904/DTD/svg10.dtd">
<svg version="1.0" xmlns="http://www.w3.org/2000/svg"
 width="300.000000pt" height="196.000000pt" viewBox="0 0 300.000000 196.000000"
 preserveAspectRatio="xMidYMid meet">
<metadata>
Created by potrace 1.10, written by Peter Selinger 2001-2011
</metadata>
<g transform="translate(0.000000,196.000000) scale(0.100000,-0.100000)"
fill="#ff1801" stroke="none">
<path d="M1517 1948 c16 -8 32 -8 55 0 32 9 31 10 -22 10 -46 1 -52 -1 -33
-10z"/>
<path d="M628 1770 c-82 -64 -98 -92 -82 -139 8 -22 56 -63 85 -73 5 -2 -88
-201 -207 -442 -199 -405 -216 -443 -211 -480 4 -32 15 -49 48 -78 39 -33 43
-41 41 -77 -4 -55 20 -107 60 -131 32 -20 46 -20 656 -18 l622 3 0 -32 c0 -32
2 -33 40 -33 38 0 40 1 40 33 l0 32 357 -3 c383 -3 423 1 481 44 42 33 105
132 105 166 0 45 -29 68 -87 68 -36 1 -63 8 -91 25 -51 31 -75 31 -105 0 -13
-14 -26 -25 -30 -25 -3 0 -11 32 -18 71 -7 39 -19 83 -27 100 -32 60 -40 62
-348 69 l-282 6 -90 38 c-161 68 -173 76 -210 128 -50 69 -95 88 -212 88 -100
0 -116 7 -128 59 -8 39 -44 70 -128 111 l-72 35 -5 233 -5 234 -28 24 c-47 40
-81 33 -169 -36z m122 -242 c0 -200 2 -226 19 -254 17 -28 85 -68 149 -88 15
-5 31 -26 47 -61 34 -77 57 -89 188 -95 l109 -5 61 -67 c56 -61 72 -71 172
-114 61 -25 124 -51 140 -57 17 -5 155 -13 308 -16 208 -5 280 -10 286 -20 4
-6 18 -56 30 -109 12 -53 30 -105 38 -114 25 -28 68 -22 101 13 l29 31 43 -22
c27 -14 55 -20 76 -18 19 2 34 3 34 1 0 -1 -14 -23 -32 -47 -53 -75 -56 -76
-468 -76 l-360 0 0 40 c0 40 0 40 -40 40 -40 0 -40 0 -40 -40 l0 -40 -614 0
c-675 0 -649 -2 -640 59 9 53 -13 109 -51 134 -19 12 -37 29 -40 38 -3 9 89
207 210 454 118 240 215 447 215 460 0 30 -32 69 -70 85 -16 7 -30 15 -30 19
1 8 111 91 122 91 4 0 8 -100 8 -222z m1628 -936 c14 14 44 20 36 7 -3 -5 -9
-7 -13 -5 -4 3 -14 -4 -21 -15 -14 -19 -60 -27 -60 -10 0 5 -3 17 -6 26 -6 16
-5 16 23 2 22 -12 33 -13 41 -5z m242 -52 c0 -11 -4 -20 -9 -20 -14 0 -41 41
-35 52 9 14 44 -12 44 -32z m-918 -137 c24 -21 23 -39 -4 -57 -20 -15 -24 -14
-45 6 l-23 22 22 23 c26 27 26 28 50 6z"/>
</g>
</svg>
