<?xml version="1.0" standalone="no"?>
<!DOCTYPE svg PUBLIC "-//W3C//DTD SVG 20010904//EN"
 "http://www.w3.org/TR/2001/REC-SVG-20010904/DTD/svg10.dtd">
<svg version="1.0" xmlns="http://www.w3.org/2000/svg"
 width="367.000000pt" height="263.000000pt" viewBox="0 0 367.000000 263.000000"
 preserveAspectRatio="xMidYMid meet">

<g transform="translate(0.000000,263.000000) scale(0.100000,-0.100000)"
fill="#ff1801" stroke="none">
<path d="M1869 2370 c-82 -14 -152 -62 -194 -134 -13 -22 -71 -167 -129 -321
-57 -154 -109 -293 -115 -308 -9 -24 -14 -26 -31 -17 -17 9 -21 6 -35 -27 -27
-64 -28 -79 -6 -89 19 -9 13 -28 -135 -424 -85 -228 -163 -426 -172 -440 -10
-14 -38 -35 -63 -48 -43 -22 -49 -22 -249 -16 -231 7 -292 -1 -400 -56 -88
-45 -118 -104 -85 -173 35 -74 -75 -69 1415 -64 1168 3 1344 5 1410 19 211 44
306 118 317 247 11 115 -42 207 -149 260 -105 53 -205 38 -254 -37 -10 -15
-20 -55 -23 -92 l-6 -65 -55 3 c-30 1 -242 14 -470 28 -451 27 -460 29 -460
84 0 29 21 59 43 61 7 1 52 0 100 -1 77 -2 94 1 141 24 62 30 99 78 117 148
17 71 0 124 -80 243 -74 111 -98 178 -87 247 14 87 74 161 141 174 20 3 88 1
153 -6 229 -24 407 -13 567 37 100 30 125 55 125 121 -1 84 -13 91 -255 147
-265 62 -346 66 -632 31 -254 -31 -242 -31 -210 -5 29 22 77 155 77 213 0 45
-25 112 -57 154 -46 61 -159 97 -254 82z m91 -120 c30 0 89 -58 95 -93 8 -43
-24 -141 -47 -145 -12 -2 -24 10 -39 42 -15 34 -31 50 -63 66 -52 25 -72 25
-119 1 -20 -10 -37 -15 -37 -10 0 23 42 89 68 107 32 23 91 42 110 36 8 -2 22
-4 32 -4z m-90 -273 c0 -5 9 -23 21 -40 18 -27 15 -26 -15 7 -20 22 -36 49
-36 60 1 21 1 21 15 2 8 -11 15 -24 15 -29z m-94 -105 c52 -62 113 -93 187
-99 37 -3 163 8 314 26 353 43 358 43 653 -25 128 -30 127 -33 -8 -60 -98 -19
-214 -20 -404 -4 -176 15 -208 10 -288 -41 -119 -76 -170 -262 -115 -419 9
-25 38 -76 65 -115 101 -141 108 -179 48 -230 -29 -24 -35 -25 -138 -23 -106
3 -109 2 -151 -27 -23 -16 -50 -46 -60 -65 -23 -42 -25 -129 -5 -169 22 -41
81 -89 118 -96 65 -11 975 -64 999 -58 67 17 99 64 99 146 0 66 15 82 65 73
64 -12 125 -82 125 -145 0 -39 -43 -89 -97 -113 -119 -53 -87 -51 -1498 -55
-1166 -2 -1307 -1 -1283 12 71 39 145 48 349 41 131 -5 210 -4 237 3 56 15
131 68 164 116 16 22 91 209 168 415 77 206 147 394 156 418 17 45 20 47 57
33 23 -9 26 -6 46 46 22 57 18 72 -16 73 -6 0 -14 4 -18 9 -4 8 89 271 155
436 l12 30 14 -45 c7 -25 30 -65 50 -88z"/>
</g>
</svg>
