<?xml version="1.0" standalone="no"?>
<!DOCTYPE svg PUBLIC "-//W3C//DTD SVG 20010904//EN"
 "http://www.w3.org/TR/2001/REC-SVG-20010904/DTD/svg10.dtd">
<svg version="1.0" xmlns="http://www.w3.org/2000/svg"
 width="473.000000pt" height="324.000000pt" viewBox="0 0 473.000000 324.000000"
 preserveAspectRatio="xMidYMid meet">

<g transform="translate(0.000000,324.000000) scale(0.100000,-0.100000)"
fill="#ff1801" stroke="none">
<path d="M3077 2756 c-96 -35 -152 -117 -151 -221 1 -122 78 -207 204 -225 34
-5 73 -16 87 -25 34 -23 55 -75 44 -111 -20 -68 -544 -1270 -559 -1281 -10 -9
-51 -13 -115 -13 l-99 0 24 33 c67 87 78 109 78 160 0 90 -19 110 -228 239
-239 147 -238 146 -287 355 -21 87 -49 180 -63 206 -48 89 -132 150 -275 197
l-68 22 7 32 c5 32 4 33 -50 53 l-55 20 -10 -28 c-5 -16 -12 -29 -15 -29 -2 0
-155 54 -340 120 -227 81 -349 120 -378 120 -78 0 -117 -29 -223 -166 -100
-129 -125 -174 -125 -221 0 -41 37 -108 76 -138 26 -20 35 -33 32 -49 -3 -11
-104 -173 -226 -360 -123 -188 -227 -357 -233 -379 -20 -74 17 -165 84 -205
23 -15 269 -66 862 -181 457 -89 849 -169 873 -177 23 -9 76 -45 118 -80 91
-78 131 -99 212 -114 104 -19 204 10 297 85 68 55 83 59 215 65 116 5 131 7
192 38 50 24 82 51 133 108 l68 76 396 198 c427 213 464 237 533 344 55 86 79
171 79 284 0 103 13 59 -178 607 -57 165 -116 320 -130 345 -48 82 -130 158
-218 201 -70 34 -104 43 -285 74 -227 39 -248 40 -303 21z m171 -121 c305 -49
373 -70 452 -141 70 -64 95 -119 235 -524 l137 -395 -4 -90 c-5 -109 -35 -180
-107 -254 -42 -43 -99 -75 -442 -246 -216 -109 -408 -208 -425 -222 -18 -13
-51 -48 -73 -77 -27 -36 -57 -62 -92 -80 -47 -23 -65 -26 -159 -26 -126 0
-174 -14 -245 -70 -72 -57 -130 -83 -190 -83 -69 0 -107 19 -204 101 -46 39
-102 78 -125 87 -23 8 -418 89 -879 179 -899 175 -880 169 -880 230 0 25 24
63 305 491 69 105 132 204 141 222 35 67 16 144 -53 212 -26 25 -40 47 -36 56
9 25 166 224 189 240 12 8 28 15 37 15 8 0 163 -53 343 -117 l328 -118 -6 -36
c-6 -36 -6 -36 47 -56 l53 -21 13 32 c8 17 15 32 17 34 1 1 40 -11 86 -28 172
-64 193 -90 244 -308 40 -169 66 -230 124 -286 21 -21 116 -85 212 -144 133
-82 175 -112 177 -130 2 -15 -15 -45 -52 -94 -48 -61 -56 -77 -56 -115 0 -33
7 -50 29 -75 l29 -33 138 -3 c149 -4 201 7 242 51 24 25 17 10 309 687 113
261 221 511 240 555 61 138 46 238 -47 318 -39 33 -102 57 -150 57 -67 0 -121
72 -100 134 14 43 56 81 93 85 4 1 51 -6 105 -14z"/>
</g>
</svg>
