<?xml version="1.0" standalone="no"?>
<!DOCTYPE svg PUBLIC "-//W3C//DTD SVG 20010904//EN"
 "http://www.w3.org/TR/2001/REC-SVG-20010904/DTD/svg10.dtd">
<svg version="1.0" xmlns="http://www.w3.org/2000/svg"
 width="300.000000pt" height="198.000000pt" viewBox="0 0 300.000000 198.000000"
 preserveAspectRatio="xMidYMid meet">
<metadata>
Created by potrace 1.10, written by Peter Selinger 2001-2011
</metadata>
<g transform="translate(0.000000,198.000000) scale(0.100000,-0.100000)"
fill="#ff1801" stroke="none">
<path d="M1585 1521 c-423 -181 -440 -191 -675 -362 -51 -36 -100 -62 -150
-78 -144 -46 -160 -53 -184 -82 -14 -17 -30 -47 -35 -67 -8 -28 -40 -66 -126
-152 -136 -135 -161 -176 -175 -292 -5 -46 -16 -110 -24 -143 -21 -81 -20 -92
9 -120 43 -43 51 -39 220 109 52 46 56 48 69 31 13 -18 15 -18 43 6 27 23 28
27 16 46 -13 19 -8 25 66 92 l80 72 15 -35 c25 -59 46 -63 221 -38 85 11 169
29 187 38 18 9 63 43 101 76 38 33 81 64 95 69 43 17 110 2 209 -46 98 -48
163 -105 297 -259 69 -79 127 -124 251 -197 75 -44 100 -53 151 -57 48 -3 69
0 101 17 119 60 148 207 61 307 -17 19 -59 48 -94 64 -71 32 -84 50 -84 116 0
60 -30 123 -72 150 -18 12 -101 38 -185 59 -126 31 -156 42 -178 65 -52 54
-51 142 2 192 23 21 64 36 212 73 228 57 239 56 326 -25 66 -61 103 -76 158
-65 104 23 152 141 92 229 -38 56 -222 273 -252 296 -34 27 -101 26 -180 -2
-67 -24 -73 -23 -142 27 -22 16 -47 25 -70 24 -23 0 -151 -50 -356 -138z m402
35 c63 -52 110 -59 193 -26 93 37 93 37 229 -126 133 -161 143 -185 95 -223
-40 -32 -60 -26 -121 33 -57 57 -119 86 -177 86 -17 -1 -117 -22 -223 -49
-212 -53 -247 -70 -285 -144 -29 -58 -29 -139 2 -201 36 -76 77 -98 255 -140
182 -44 195 -53 195 -143 0 -86 27 -125 118 -170 41 -21 80 -47 88 -57 54 -78
-3 -186 -98 -186 -23 0 -66 19 -137 60 -129 75 -177 113 -246 201 -72 89 -88
106 -158 162 -96 78 -252 147 -332 147 -57 0 -119 -30 -188 -90 -37 -33 -77
-65 -89 -71 -17 -9 -244 -48 -284 -49 -6 0 -17 13 -24 29 -14 35 -64 61 -102
54 -15 -3 -64 -39 -109 -81 -75 -70 -82 -74 -94 -58 -13 17 -15 17 -44 -5 -35
-26 -37 -32 -17 -48 12 -10 1 -25 -62 -86 -42 -40 -79 -72 -81 -70 -2 2 4 35
12 72 9 37 18 91 21 120 8 79 34 119 158 238 96 92 118 119 132 161 18 54 45
76 106 88 77 14 169 59 260 127 52 39 137 96 189 127 91 55 739 341 773 342 9
0 29 -11 45 -24z m-1451 -1108 c-1 -28 -5 -34 -31 -39 -16 -3 -33 -4 -37 -2
-13 7 17 62 37 66 11 2 23 5 26 6 4 0 6 -14 5 -31z m-236 -164 c0 4 5 4 11 0
7 -4 0 -13 -16 -24 -21 -14 -31 -15 -40 -7 -11 10 -12 22 -6 61 0 5 12 -1 26
-14 14 -13 25 -20 25 -16z"/>
</g>
</svg>
