<?xml version="1.0" standalone="no"?>
<!DOCTYPE svg PUBLIC "-//W3C//DTD SVG 20010904//EN"
 "http://www.w3.org/TR/2001/REC-SVG-20010904/DTD/svg10.dtd">
<svg version="1.0" xmlns="http://www.w3.org/2000/svg"
 width="300.000000pt" height="234.000000pt" viewBox="0 0 300.000000 234.000000"
 preserveAspectRatio="xMidYMid meet">
<metadata>
Created by potrace 1.10, written by Peter Selinger 2001-2011
</metadata>
<g transform="translate(0.000000,234.000000) scale(0.100000,-0.100000)"
fill="#ff1801" stroke="none">
<path d="M2355 2323 c-11 -3 -102 -45 -203 -94 l-183 -88 -11 27 c-7 15 -13
28 -13 30 -3 5 -65 -30 -65 -37 0 -3 7 -16 15 -28 15 -21 13 -22 -37 -46 -302
-140 -587 -283 -605 -303 -26 -28 -28 -53 -11 -100 10 -30 9 -36 -17 -70 -47
-61 -41 -81 73 -273 111 -185 127 -231 102 -305 -10 -33 -15 -36 -48 -36 -78
1 -122 18 -231 89 -124 80 -152 86 -200 45 -24 -20 -31 -34 -31 -61 0 -49 7
-59 115 -153 93 -81 97 -86 91 -119 -8 -50 -63 -137 -131 -206 -76 -76 -174
-128 -294 -156 -103 -24 -140 -47 -173 -112 -27 -55 -21 -131 15 -185 57 -87
226 -134 307 -86 34 19 458 542 539 665 21 31 47 90 59 130 l22 74 54 -3 c48
-3 57 0 85 25 27 24 34 42 52 130 l20 103 -80 154 c-76 144 -81 157 -81 216 0
77 20 113 78 141 50 25 95 20 137 -13 18 -14 47 -23 79 -26 65 -5 95 17 136
98 16 32 35 62 41 66 6 3 44 1 84 -6 40 -7 90 -10 109 -6 32 6 41 15 83 87 25
44 55 85 66 91 12 6 45 8 82 4 56 -6 68 -3 116 22 100 52 123 125 69 218 -44
77 -133 117 -215 97z m122 -95 c35 -32 56 -76 49 -102 -3 -12 -20 -33 -38 -46
-30 -22 -42 -24 -113 -22 -104 4 -134 -15 -190 -116 l-40 -73 -45 6 c-138 19
-155 18 -184 -6 -15 -13 -42 -51 -59 -84 -38 -71 -64 -80 -121 -41 -41 28
-108 41 -154 31 -16 -3 -50 -19 -74 -34 -64 -41 -88 -95 -88 -195 0 -78 0 -79
78 -230 l79 -151 -16 -75 c-9 -41 -20 -81 -24 -87 -5 -7 -24 -13 -44 -13 -30
0 -34 3 -28 17 16 38 17 132 2 175 -8 24 -58 115 -110 202 l-96 159 28 36 c40
51 45 74 25 116 -10 21 -13 40 -8 44 5 5 149 76 321 159 271 130 313 147 318
132 5 -17 8 -17 36 -3 20 10 29 21 27 34 -3 19 51 49 282 156 106 49 144 51
187 11z m-500 -136 c-6 -13 -16 -21 -25 -17 -7 3 -18 5 -23 5 -6 0 -6 7 0 19
7 11 20 18 34 17 22 -1 23 -4 14 -24z m-899 -1061 c122 -81 141 -90 221 -97
39 -4 71 -9 71 -11 0 -15 -56 -143 -74 -168 -11 -16 -127 -166 -258 -332 -284
-360 -270 -350 -403 -286 -77 36 -104 97 -71 162 22 42 37 51 139 76 51 12
121 37 154 54 196 99 366 352 299 446 -8 11 -55 56 -105 100 -85 74 -112 115
-76 115 9 0 55 -26 103 -59z m370 -54 c9 -10 4 -17 -18 -31 -44 -25 -72 0 -32
30 22 17 37 17 50 1z"/>
<path d="M2963 786 c-41 -46 -44 -91 -8 -130 30 -33 45 -33 45 -1 0 14 -4 25
-10 25 -19 0 -23 50 -5 70 9 10 15 30 13 46 l-3 28 -32 -38z"/>
</g>
</svg>
