<?xml version="1.0" standalone="no"?>
<!DOCTYPE svg PUBLIC "-//W3C//DTD SVG 20010904//EN"
 "http://www.w3.org/TR/2001/REC-SVG-20010904/DTD/svg10.dtd">
<svg version="1.0" xmlns="http://www.w3.org/2000/svg"
 width="155.000000pt" height="126.000000pt" viewBox="0 0 155.000000 126.000000"
 preserveAspectRatio="xMidYMid meet">
<metadata>
Created by potrace 1.10, written by Peter Selinger 2001-2011
</metadata>
<g transform="translate(0.000000,126.000000) scale(0.100000,-0.100000)"
fill="#ff1801" stroke="none">
<path d="M1219 1051 c-21 -17 -23 -26 -21 -82 2 -43 9 -70 23 -87 25 -32 24
-49 -3 -55 -13 -3 -150 -9 -305 -13 l-283 -7 0 60 c0 46 -5 68 -23 94 -35 52
-82 79 -139 79 -60 0 -98 -19 -135 -67 -26 -34 -28 -43 -31 -152 -2 -67 -9
-122 -15 -130 -6 -7 -44 -28 -83 -46 -79 -36 -102 -64 -123 -153 -11 -46 -11
-56 3 -77 9 -14 22 -25 30 -25 7 0 53 -26 102 -59 84 -56 180 -108 269 -148
36 -16 83 -18 474 -21 239 -1 442 0 452 3 11 4 19 14 19 23 0 10 6 27 14 38
11 15 15 80 17 299 l4 280 -30 45 c-76 114 -147 210 -155 210 -5 0 -15 2 -23
5 -7 3 -25 -3 -38 -14z m115 -121 c105 -144 99 -116 94 -409 -4 -221 -7 -261
-22 -289 l-18 -33 -431 3 -432 3 -100 49 c-55 26 -101 52 -103 57 -2 5 -10 9
-17 9 -8 0 -20 6 -27 13 -24 23 -123 87 -134 87 -49 0 -33 106 23 157 19 17
48 35 63 38 15 3 45 21 66 39 l39 34 4 118 c4 134 14 159 76 188 43 21 86 14
132 -20 37 -28 53 -74 53 -151 l0 -53 113 0 c141 0 504 18 529 26 37 11 42 42
14 96 -25 48 -32 90 -20 122 10 25 31 7 98 -84z"/>
<path d="M1258 958 c2 -18 10 -40 16 -48 20 -27 36 -59 36 -73 0 -7 -13 -26
-29 -41 -26 -25 -41 -30 -119 -37 -49 -5 -201 -8 -338 -7 l-249 3 -3 75 c-3
87 -14 115 -55 135 -39 19 -77 19 -105 -1 -41 -28 -52 -66 -52 -174 0 -126
-10 -143 -114 -194 -81 -39 -92 -52 -101 -112 -6 -38 -5 -40 35 -57 22 -11 46
-24 53 -31 14 -14 147 -93 197 -118 108 -52 97 -51 410 -52 162 -1 349 0 416
2 l120 3 11 28 c6 17 11 130 12 278 l2 250 -68 101 c-37 56 -71 102 -74 102
-3 0 -4 -15 -1 -32z m-746 -35 c11 -12 17 -44 20 -95 5 -120 2 -118 227 -117
102 0 254 4 337 8 131 6 155 10 187 30 20 12 39 31 42 41 8 25 21 26 30 3 8
-21 7 -497 -2 -519 -4 -12 -65 -14 -392 -14 -384 0 -388 0 -448 24 -75 29
-153 72 -255 139 -70 46 -78 55 -73 76 7 29 29 48 65 56 34 8 99 54 124 88 18
24 21 46 24 145 4 131 13 152 67 152 18 0 39 -8 47 -17z"/>
<path d="M279 190 c-26 -26 -30 -36 -27 -77 2 -40 6 -48 23 -49 36 -1 55 15
55 46 0 23 5 30 19 30 34 0 51 12 50 34 -1 15 -3 16 -6 4 -2 -9 -20 -20 -41
-25 -32 -8 -37 -13 -37 -38 -1 -25 -5 -31 -29 -33 -28 -4 -29 -3 -23 38 5 42
42 94 58 84 5 -3 9 0 9 5 0 19 -21 12 -51 -19z"/>
<path d="M409 93 c-1 -5 -2 -20 -3 -34 -2 -14 -7 -32 -11 -40 -8 -12 -6 -12 8
0 9 7 17 26 17 42 0 25 4 29 26 29 25 0 26 -2 22 -45 -2 -25 0 -45 4 -45 5 0
8 23 8 50 l0 50 -35 0 c-19 0 -35 -3 -36 -7z"/>
</g>
</svg>
