<?xml version="1.0" standalone="no"?>
<!DOCTYPE svg PUBLIC "-//W3C//DTD SVG 20010904//EN"
 "http://www.w3.org/TR/2001/REC-SVG-20010904/DTD/svg10.dtd">
<svg version="1.0" xmlns="http://www.w3.org/2000/svg"
 width="486.000000pt" height="215.000000pt" viewBox="0 0 486.000000 215.000000"
 preserveAspectRatio="xMidYMid meet">

<g transform="translate(0.000000,215.000000) scale(0.100000,-0.100000)"
fill="#ff1801" stroke="none">
<path d="M2070 1763 c-31 -11 -67 -38 -113 -85 -103 -105 -111 -106 -354 -47
-136 33 -182 40 -243 37 -73 -3 -78 -5 -224 -87 -199 -113 -214 -118 -304
-101 -88 16 -185 9 -238 -18 -65 -33 -487 -378 -506 -414 -35 -65 -18 -141 42
-192 40 -33 112 -36 170 -6 50 26 102 25 176 -1 32 -11 111 -35 174 -54 l115
-33 -1 -50 -2 -50 55 -7 c30 -4 57 -4 60 -2 2 3 7 24 10 47 l6 43 66 -6 c61
-6 321 -18 714 -33 99 -4 162 -10 168 -18 5 -6 22 -32 38 -57 17 -26 43 -52
63 -62 35 -17 216 -42 545 -77 481 -50 865 -69 1028 -51 250 28 436 34 747 22
278 -11 309 -11 338 4 44 23 70 70 70 130 0 41 -5 57 -30 87 -34 41 -32 41
-215 68 -426 62 -701 168 -945 365 -71 58 -90 87 -90 138 0 52 -44 132 -90
166 -61 44 -240 133 -352 175 -175 65 -686 187 -779 185 -30 0 -74 -8 -99 -16z
m400 -163 c338 -78 525 -143 693 -240 77 -43 107 -79 107 -125 0 -93 72 -182
240 -294 243 -163 516 -257 896 -311 75 -10 139 -21 141 -24 3 -3 3 -12 -1
-21 -5 -15 -22 -16 -148 -8 -249 14 -676 8 -838 -12 -115 -14 -183 -16 -325
-11 -394 15 -1205 97 -1241 126 -8 7 -22 28 -31 47 -9 19 -31 46 -51 61 -38
29 -12 27 -612 52 -146 6 -291 13 -323 17 l-59 6 4 43 c3 43 3 44 -32 50 -19
3 -45 7 -56 10 -23 4 -34 -11 -34 -50 0 -13 -3 -25 -6 -28 -7 -8 -117 22 -251
68 -122 41 -199 45 -273 13 -53 -23 -83 -20 -78 8 4 24 434 370 477 384 19 7
56 9 90 5 204 -23 202 -24 412 95 105 59 156 83 190 86 32 4 98 -7 225 -37
146 -34 191 -41 246 -37 81 5 140 37 195 103 56 67 95 86 168 80 33 -3 157
-28 275 -56z"/>
</g>
</svg>
