<?xml version="1.0" standalone="no"?>
<!DOCTYPE svg PUBLIC "-//W3C//DTD SVG 20010904//EN"
 "http://www.w3.org/TR/2001/REC-SVG-20010904/DTD/svg10.dtd">
<svg version="1.0" xmlns="http://www.w3.org/2000/svg"
 width="300.000000pt" height="185.000000pt" viewBox="0 0 300.000000 185.000000"
 preserveAspectRatio="xMidYMid meet">
<metadata>
Created by potrace 1.10, written by Peter Selinger 2001-2011
</metadata>
<g transform="translate(0.000000,185.000000) scale(0.100000,-0.100000)"
fill="#ff1801" stroke="none">
<path d="M2193 1638 c-16 -18 -23 -46 -32 -126 -20 -188 -18 -204 49 -360 33
-78 60 -150 60 -162 0 -12 -14 -35 -31 -52 l-30 -31 -197 7 c-108 3 -251 9
-316 13 l-119 6 -134 91 c-73 50 -181 124 -240 163 -92 64 -112 73 -150 73
-67 0 -101 -39 -142 -162 -18 -54 -35 -98 -38 -98 -3 0 -39 31 -79 69 -86 82
-126 96 -183 65 -41 -22 -54 -40 -236 -340 -153 -251 -158 -268 -103 -320 18
-17 52 -45 75 -63 42 -32 43 -33 28 -61 -18 -35 -19 -67 -2 -97 15 -27 272
-223 292 -223 26 0 63 22 72 44 5 11 50 157 99 323 49 167 91 302 94 302 3 0
27 -27 54 -60 70 -87 100 -99 239 -99 l114 0 5 -51 c9 -89 19 -93 216 -97 105
-2 181 1 205 8 49 14 77 59 77 123 l0 48 72 -3 72 -3 11 -55 c14 -67 29 -96
57 -111 12 -6 109 -18 216 -25 162 -11 199 -11 225 0 40 17 164 145 172 177 3
13 -1 80 -10 149 -21 176 -22 170 21 170 29 0 35 3 30 16 -3 9 -6 29 -6 45 0
27 -2 29 -27 23 -16 -4 -32 -7 -37 -8 -5 0 -22 112 -37 249 -19 170 -33 260
-44 281 -18 33 -47 51 -127 80 -27 9 -66 35 -92 60 -37 37 -50 44 -83 44 -28
0 -46 -7 -60 -22z m89 -36 c8 -8 6 -9 -10 -5 -13 3 -28 -2 -39 -12 -13 -13
-18 -14 -21 -5 -6 16 23 39 44 36 8 -1 19 -7 26 -14z m118 -127 c33 -10 66
-25 74 -34 9 -11 23 -93 40 -243 32 -279 32 -268 3 -268 -20 0 -22 -4 -19 -40
4 -36 7 -40 31 -40 l28 0 13 -141 13 -142 -65 -64 c-36 -35 -72 -61 -79 -59
-8 3 -54 7 -104 10 -245 16 -245 16 -251 45 -31 141 -44 153 -172 153 -49 0
-99 -5 -111 -11 -30 -17 -51 -63 -51 -116 l0 -45 -163 0 -163 0 4 38 c3 30 -2
45 -23 70 l-27 32 -119 0 c-83 0 -128 4 -147 14 -15 8 -58 50 -96 95 -54 64
-73 81 -94 81 -54 0 -47 16 -172 -406 l-83 -280 -112 85 -113 84 14 33 c29 70
15 98 -98 189 l-38 30 151 245 c82 135 158 253 169 264 22 23 25 21 129 -74
45 -41 91 -79 101 -84 38 -18 62 14 110 144 25 68 53 128 62 133 17 11 72 -23
353 -220 160 -112 146 -109 475 -118 107 -3 220 -8 251 -11 133 -13 229 58
229 171 0 35 -16 83 -61 188 l-61 142 11 117 c6 64 11 122 11 129 0 7 20 -8
45 -33 34 -33 61 -50 105 -63z m-1496 -522 c-24 -17 -48 -13 -52 10 -2 11 1
15 10 12 7 -3 22 1 33 9 18 13 20 13 24 -2 2 -8 -5 -22 -15 -29z m1742 -45 c5
4 -6 -8 -23 -27 -27 -28 -35 -32 -47 -22 -25 21 -28 48 -10 77 l18 26 27 -30
c15 -17 31 -27 35 -24z m-1693 -166 c20 -17 24 -40 5 -25 -16 11 -27 11 -55
-5 -19 -11 -21 -10 -16 11 12 48 27 52 66 19z m-258 -652 c-16 -18 -20 -18
-46 -4 -16 8 -29 17 -29 20 0 2 9 0 19 -6 15 -7 25 -5 43 9 27 23 38 8 13 -19z"/>
<path d="M2750 15 c-23 -13 -19 -14 59 -15 77 0 83 1 65 15 -24 18 -92 19
-124 0z"/>
</g>
</svg>
