<?xml version="1.0" standalone="no"?>
<!DOCTYPE svg PUBLIC "-//W3C//DTD SVG 20010904//EN"
 "http://www.w3.org/TR/2001/REC-SVG-20010904/DTD/svg10.dtd">
<svg version="1.0" xmlns="http://www.w3.org/2000/svg"
 width="139.000000pt" height="130.000000pt" viewBox="0 0 139.000000 130.000000"
 preserveAspectRatio="xMidYMid meet">
<metadata>
Created by potrace 1.10, written by Peter Selinger 2001-2011
</metadata>
<g transform="translate(0.000000,130.000000) scale(0.100000,-0.100000)"
fill="#ff1801" stroke="none">
<path d="M1060 1107 c-52 -14 -90 -61 -90 -112 0 -30 16 -118 40 -224 11 -47
7 -62 -12 -43 -19 19 -44 14 -109 -18 -33 -17 -103 -45 -157 -62 -88 -29 -110
-32 -226 -32 -92 -1 -130 2 -133 11 -3 7 11 14 34 18 140 24 203 63 203 125 0
95 -217 188 -311 133 -18 -11 -43 -44 -65 -88 -20 -38 -50 -90 -68 -115 -60
-83 -70 -145 -35 -217 14 -30 35 -52 67 -70 42 -25 54 -27 161 -28 l116 0 70
40 c108 62 126 65 236 43 76 -15 104 -16 143 -8 27 6 51 8 53 6 3 -3 -2 -15
-11 -28 -10 -14 -16 -44 -16 -81 0 -45 -8 -78 -35 -140 -41 -93 -43 -117 -14
-163 24 -39 69 -52 122 -35 40 14 51 36 149 296 33 88 75 198 95 245 59 143
91 223 102 259 16 51 13 148 -6 188 -21 44 -82 90 -131 97 -92 14 -130 14
-172 3z m145 -37 c53 -8 65 -14 103 -56 39 -43 42 -50 42 -104 0 -33 -4 -62
-10 -65 -5 -3 -10 -14 -10 -23 0 -9 -6 -28 -13 -42 -7 -14 -24 -54 -37 -90
-13 -36 -26 -69 -30 -75 -4 -5 -15 -32 -25 -60 -10 -27 -26 -68 -35 -90 -10
-22 -46 -116 -80 -210 -35 -93 -70 -178 -78 -187 -19 -23 -70 -23 -94 -1 -20
17 -24 63 -8 91 30 55 50 117 56 178 9 90 18 112 51 125 51 21 68 27 86 33 26
8 32 35 12 50 -15 10 -25 10 -59 -1 -22 -7 -48 -17 -57 -22 -8 -5 -42 -14 -74
-21 -50 -10 -75 -10 -166 6 -125 20 -146 16 -256 -48 -63 -37 -68 -38 -163
-38 -103 0 -139 11 -177 52 -54 60 -47 118 25 224 22 33 50 79 62 104 36 72
47 80 106 80 84 0 195 -62 194 -109 -1 -39 -56 -71 -145 -86 -58 -9 -85 -30
-85 -65 0 -19 6 -31 18 -34 120 -38 394 7 551 91 56 30 70 29 97 -4 19 -24 24
-26 39 -13 18 15 18 15 -10 165 -25 131 -28 197 -11 219 26 32 88 41 181 26z"/>
<path d="M1046 1031 c-12 -14 -17 -29 -13 -48 3 -15 12 -66 21 -113 8 -47 20
-109 26 -139 8 -45 7 -58 -5 -78 -21 -31 -61 -30 -89 2 l-21 25 -65 -32 c-112
-55 -163 -71 -288 -92 -109 -19 -157 -20 -220 -5 -53 13 -82 39 -82 76 0 39
43 69 125 88 41 9 85 25 97 35 22 18 23 18 4 39 -33 36 -122 72 -169 69 -41
-3 -43 -5 -73 -65 -17 -34 -47 -84 -67 -112 -44 -61 -58 -114 -43 -162 16 -50
64 -70 173 -72 92 -2 89 -3 208 61 77 41 125 48 203 29 38 -9 91 -17 116 -17
42 0 147 28 188 51 44 23 98 -3 98 -49 0 -27 -41 -59 -94 -73 -51 -14 -56 -21
-56 -85 0 -57 -9 -89 -52 -184 -24 -52 -27 -69 -19 -87 20 -44 72 -20 87 41 4
16 13 41 20 55 8 14 14 33 14 42 0 8 4 19 8 25 5 5 17 32 27 59 9 28 23 64 30
80 8 17 30 73 50 125 20 52 42 109 49 125 8 17 22 53 31 80 10 28 22 55 25 60
4 6 15 34 25 63 23 71 8 131 -42 170 -30 22 -47 27 -122 30 -77 4 -88 2 -105
-17z m192 -34 c28 -13 52 -56 52 -91 0 -14 -11 -51 -24 -83 -14 -32 -39 -95
-57 -140 -31 -77 -49 -98 -64 -73 -4 6 -15 8 -26 5 -21 -7 -28 18 -8 31 14 8
8 83 -20 229 -25 133 -25 133 -5 137 32 6 129 -3 152 -15z m-782 -197 c57 -25
50 -36 -31 -51 -33 -6 -71 -18 -85 -26 -65 -38 -85 -120 -41 -166 28 -31 101
-50 153 -42 24 4 38 3 38 -4 0 -24 -44 -33 -138 -29 -89 5 -97 7 -119 32 -12
15 -23 36 -23 47 0 17 34 81 95 178 6 9 18 31 28 49 21 39 52 42 123 12z m514
-180 c0 -5 9 -10 19 -10 25 0 35 -15 18 -28 -18 -14 -143 -35 -172 -28 -35 9
-31 23 8 30 18 3 48 15 67 25 39 22 60 26 60 11z m140 -208 c0 -4 -4 -12 -9
-17 -5 -6 -14 -26 -19 -45 -6 -19 -24 -73 -42 -120 -17 -47 -34 -93 -37 -102
-5 -16 -33 -27 -33 -13 0 3 14 33 30 67 18 37 36 94 42 138 11 73 26 100 55
100 7 0 13 -4 13 -8z"/>
</g>
</svg>
